<svg xmlns="http://www.w3.org/2000/svg" width="70" height="67" viewBox="0 0 70 67"><g><g><g/><g><path fill="#ffc700" fill-opacity=".85" d="M48 43c0 13.255-10.745 24-24 24S0 56.255 0 43s10.745-24 24-24 24 10.745 24 24z"/></g><g><path fill="#5c5c5c" d="M15.6 15.283a5.62 5.62 0 0 1 5.613-5.613 5.62 5.62 0 0 1 5.613 5.613 5.62 5.62 0 0 1-5.613 5.613 5.62 5.62 0 0 1-5.613-5.613zm1.758 0a3.86 3.86 0 0 0 3.855 3.855 3.86 3.86 0 0 0 3.855-3.855 3.86 3.86 0 0 0-3.855-3.855 3.86 3.86 0 0 0-3.855 3.855z"/></g><g><path fill="#5c5c5c" d="M33.733 9.67a5.62 5.62 0 0 1 5.613 5.613 5.62 5.62 0 0 1-5.613 5.613 5.62 5.62 0 0 1-5.613-5.613 5.62 5.62 0 0 1 5.613-5.613zm0 1.758a3.86 3.86 0 0 0-3.855 3.855 3.86 3.86 0 0 0 3.855 3.855 3.86 3.86 0 0 0 3.855-3.855 3.86 3.86 0 0 0-3.855-3.855z"/></g><g><path fill="#5c5c5c" d="M40.64 15.283a5.62 5.62 0 0 1 5.613-5.613 5.62 5.62 0 0 1 5.613 5.613 5.62 5.62 0 0 1-5.613 5.613 5.62 5.62 0 0 1-5.613-5.613zm1.758 0a3.86 3.86 0 0 0 3.855 3.855 3.86 3.86 0 0 0 3.855-3.855 3.86 3.86 0 0 0-3.855-3.855 3.86 3.86 0 0 0-3.855 3.855z"/></g><g><path fill="#5c5c5c" d="M41.137 5.99H16.479a.879.879 0 1 0 0 1.758h24.658a.879.879 0 1 0 0-1.758z"/></g><g><path fill="#5c5c5c" d="M15.6 32.803a5.62 5.62 0 0 1 5.613-5.613 5.62 5.62 0 0 1 5.613 5.613 5.62 5.62 0 0 1-5.613 5.613 5.62 5.62 0 0 1-5.613-5.613zm1.758 0a3.86 3.86 0 0 0 3.855 3.855 3.86 3.86 0 0 0 3.855-3.855 3.86 3.86 0 0 0-3.855-3.855 3.86 3.86 0 0 0-3.855 3.855z"/></g><g><path fill="#5c5c5c" d="M33.733 27.19a5.62 5.62 0 0 1 5.613 5.613 5.62 5.62 0 0 1-5.613 5.613 5.62 5.62 0 0 1-5.613-5.613 5.62 5.62 0 0 1 5.613-5.613zm0 1.758a3.86 3.86 0 0 0-3.855 3.855 3.86 3.86 0 0 0 3.855 3.855 3.86 3.86 0 0 0 3.855-3.855 3.86 3.86 0 0 0-3.855-3.855z"/></g><g><path fill="#5c5c5c" d="M16.479 25.278h24.658a.879.879 0 1 0 0-1.758H16.479a.879.879 0 1 0 0 1.758z"/></g><g><path fill="#5c5c5c" d="M15.6 50.963a5.62 5.62 0 0 1 5.613-5.613 5.62 5.62 0 0 1 5.613 5.613 5.62 5.62 0 0 1-5.613 5.613 5.62 5.62 0 0 1-5.613-5.613zm1.758 0a3.86 3.86 0 0 0 3.855 3.855 3.86 3.86 0 0 0 3.855-3.855 3.86 3.86 0 0 0-3.855-3.855 3.86 3.86 0 0 0-3.855 3.855z"/></g><g><path fill="#5c5c5c" d="M33.733 45.35a5.62 5.62 0 0 1 5.613 5.613 5.62 5.62 0 0 1-5.613 5.613 5.62 5.62 0 0 1-5.613-5.613 5.62 5.62 0 0 1 5.613-5.613zm0 1.758a3.86 3.86 0 0 0-3.855 3.855 3.86 3.86 0 0 0 3.855 3.855 3.86 3.86 0 0 0 3.855-3.855 3.86 3.86 0 0 0-3.855-3.855z"/></g><g><path fill="#5c5c5c" d="M40.64 50.963a5.62 5.62 0 0 1 5.613-5.613 5.62 5.62 0 0 1 5.613 5.613 5.62 5.62 0 0 1-5.613 5.613 5.62 5.62 0 0 1-5.613-5.613zm1.758 0a3.86 3.86 0 0 0 3.855 3.855 3.86 3.86 0 0 0 3.855-3.855 3.86 3.86 0 0 0-3.855-3.855 3.86 3.86 0 0 0-3.855 3.855z"/></g><g><path fill="#5c5c5c" d="M16.479 43.428h24.658a.879.879 0 1 0 0-1.758H16.479a.879.879 0 1 0 0 1.758z"/></g><g><path fill="#5c5c5c" d="M66.694 10.804c2.196.892 3.376 2.733 3.27 5.174-.117 2.653-2.243 6.802-4.3 10.814-.928 1.812-1.805 3.523-2.414 4.946-.822 1.92-.815 2.548-.773 2.73a.879.879 0 1 1-1.714.39c-.354-1.55 1.037-4.38 3.337-8.868 1.879-3.665 4.007-7.82 4.107-10.09.07-1.609-.585-2.738-1.949-3.37.083.36.106.74.054 1.124-.13.978-.318 2.038-.559 3.151a.88.88 0 0 1-1.718-.371c.23-1.067.41-2.08.535-3.013a1.391 1.391 0 0 0-.867-1.478l-2.45-.977a1.39 1.39 0 0 0-1.646.475c-2.304 3.185-4.69 7.743-6.72 12.835a78.89 78.89 0 0 0-2.137 6.047l7.256 2.893a78.922 78.922 0 0 0 2.609-5.858 76.364 76.364 0 0 0 2.582-7.564.88.88 0 0 1 1.692.476 78.106 78.106 0 0 1-2.641 7.739c-1.465 3.674-3.122 7.094-4.808 9.949v18.435A3.612 3.612 0 0 1 53.832 60H13.627a3.611 3.611 0 0 1-3.607-3.607v-5.388a.879.879 0 1 1 1.758 0v5.388c0 1.02.83 1.85 1.849 1.85h40.205c1.02 0 1.85-.83 1.85-1.85V40.711l-.266.378c-2.24 3.133-4.167 4.712-5.743 4.712-.288 0-.563-.053-.827-.158-1.643-.655-2.215-3.108-1.704-7.293a5.62 5.62 0 0 1-6.508-5.543 5.62 5.62 0 0 1 5.613-5.613c1.21 0 2.361.384 3.311 1.08a82.575 82.575 0 0 1 1.696-4.649c1.357-3.404 2.875-6.582 4.428-9.297V3.607c0-1.02-.83-1.85-1.85-1.85H13.627c-1.02 0-1.85.83-1.85 1.85v43.882a.879.879 0 1 1-1.757 0V3.607A3.611 3.611 0 0 1 13.627 0h40.205a3.612 3.612 0 0 1 3.608 3.607v7.873c.248-.37.495-.727.742-1.068.305-.423.7-.749 1.142-.97l1.088-2.73c.237-.593.69-1.06 1.278-1.312a2.377 2.377 0 0 1 1.832-.024l2.381.95a2.396 2.396 0 0 1 1.337 3.108zm-20.447 25.86c.405 0 .8-.063 1.177-.184.345-1.961.874-4.121 1.56-6.39a3.837 3.837 0 0 0-2.737-1.138 3.86 3.86 0 0 0-3.855 3.856 3.86 3.86 0 0 0 3.855 3.855zm4.007-4.647c-.605 2.176-1.05 4.223-1.302 6.042-.597 4.298.095 5.772.545 5.951.448.18 1.965-.415 4.489-3.943 1.069-1.495 2.156-3.284 3.214-5.28zm14.1-21.706c.19.075.367.17.534.276l.719-1.804a.636.636 0 0 0-.355-.825l-2.381-.95a.631.631 0 0 0-.826.355l-.719 1.803c.195.038.388.092.577.167z"/></g></g></g></svg>