<svg xmlns="http://www.w3.org/2000/svg" width="64" height="61" viewBox="0 0 64 61"><g><g><g/><g transform="rotate(154.35 25.5 25.5)"><path fill="#ffc700" fill-opacity=".85" d="M.69 25.581C.69 11.911 11.772.83 25.441.83c13.67 0 24.752 11.081 24.752 24.751 0 13.67-11.082 24.752-24.752 24.752C11.771 50.333.69 39.25.69 25.58z"/></g><g><g><g><path fill="#5c5c5c" d="M63.991 17.409l-.383 3.068c-.07.559-.54.982-1.103.995a.967.967 0 0 0-.114.008 2.243 2.243 0 0 0-.124.33c-.214.681-.356 1.494-.508 2.354a44.019 44.019 0 0 1-.294 1.555c.453 2.053.685 4.166.685 6.286 0 16.032-13.043 29.075-29.075 29.075S4 48.037 4 32.005 17.043 2.93 33.075 2.93c6.423 0 12.512 2.053 17.608 5.937a1.136 1.136 0 1 1-1.378 1.807c-4.697-3.579-10.309-5.47-16.23-5.47-14.779 0-26.802 12.023-26.802 26.8 0 14.78 12.024 26.803 26.802 26.803s26.802-12.024 26.802-26.802c0-.743-.032-1.485-.092-2.224-.034.044-.065.088-.1.13-1.36 1.663-3.415 2.48-6.257 2.48-.472 0-.966-.022-1.481-.067-2.862-.25-5.15-.758-7.013-2.43-1.761-1.582-2.965-4.047-4.335-7.512a7.946 7.946 0 0 1-.103-.282c-.202-.575-.217-.574-.569-.565-.341.009-.422.045-.439.056 0 0-.1.1-.173.504-.277 1.544-1.383 4.036-3.227 6.123-1.645 1.861-4.48 4.078-8.652 4.078h-.013c-3.392-.003-5.819-.944-7.42-2.876-1.496-1.806-2.268-4.45-2.43-8.318a.825.825 0 0 0-.136-.013 1.136 1.136 0 0 1-1.098-.965l-.469-3.068c-.09-.588.29-1.146.87-1.28 8.156-1.871 14.555-.9 20.254.428l.156.037c.878.205 1.786.417 2.697.445 1.631.05 3.495-.354 5.264-.798 7.102-1.785 12.562-.892 17.99.268.577.124.964.667.89 1.253zm-2.385.757c-4.824-.99-9.749-1.63-15.94-.074-1.929.485-3.978.925-5.888.866-1.138-.034-2.204-.284-3.145-.504l-.155-.036c-5.189-1.209-10.977-2.11-18.2-.648l.19 1.235c.815.32 1.338 1.028 1.374 1.945.263 6.609 2.319 9.068 7.584 9.074h.01c6.14 0 9.258-6.194 9.641-8.33.425-2.367 2.142-2.414 2.788-2.431l.107-.002c1.937 0 2.448 1.459 2.669 2.088l.07.197c2.681 6.775 4.092 8.048 9.433 8.514 5.156.45 6.395-1.684 7.039-4.533.006-.04.015-.079.026-.117.115-.527.212-1.077.311-1.64.165-.935.32-1.818.579-2.641.137-.438.417-1.33 1.353-1.729z"/></g></g></g><g><g><g><path fill="#5c5c5c" d="M48.509 39.276a1.137 1.137 0 0 0-1.307.935c-.369 2.222-1.83 4.089-3.812 4.87a6.041 6.041 0 0 1-6.043-.949 1.137 1.137 0 0 0-1.441 1.758 8.318 8.318 0 0 0 8.318 1.306c2.722-1.073 4.722-3.607 5.22-6.613a1.136 1.136 0 0 0-.935-1.307z"/></g></g></g><g><g><g><path fill="#5c5c5c" d="M52.897 13.373a1.137 1.137 0 1 0 0-2.273 1.137 1.137 0 0 0 0 2.273z"/></g></g></g></g></g></svg>