<svg xmlns="http://www.w3.org/2000/svg" width="67" height="63" viewBox="0 0 67 63"><g><g><g/><g><path fill="#ffc700" fill-opacity=".85" d="M67 24c0 13.255-10.745 24-24 24S19 37.255 19 24 29.745 0 43 0s24 10.745 24 24z"/></g><g><path fill="#5c5c5c" d="M51.213 11.787C45.547 6.12 38.013 3 30 3c-8.013 0-15.547 3.12-21.213 8.787C3.12 17.453 0 24.987 0 33c0 8.013 3.12 15.547 8.787 21.213C14.453 59.88 21.987 63 30 63a.883.883 0 1 0 0-1.765c-7.542 0-14.632-2.937-19.965-8.27S1.765 40.542 1.765 33s2.937-14.632 8.27-19.965S22.458 4.765 30 4.765s14.632 2.937 19.965 8.27 8.27 12.423 8.27 19.965c0 14.268-10.664 26.317-24.806 28.029a.883.883 0 0 0 .212 1.752C48.669 60.962 60 48.16 60 33c0-8.013-3.12-15.547-8.787-21.213z"/></g><g><path fill="#5c5c5c" d="M53.452 41.244a.883.883 0 0 0 1.105-.58 25.718 25.718 0 0 0 1.162-7.666c0-6.87-2.675-13.328-7.532-18.185C43.329 9.954 36.87 7.28 30 7.28a25.646 25.646 0 0 0-13.668 3.929A25.801 25.801 0 0 0 7.025 21.43a.883.883 0 0 0 1.575.795 24.035 24.035 0 0 1 8.673-9.523A23.865 23.865 0 0 1 29.119 9.06v3.997a.883.883 0 0 0 1.765 0V9.063c12.507.455 22.597 10.545 23.053 23.052H49.94a.882.882 0 1 0 0 1.766h3.997a23.91 23.91 0 0 1-1.066 6.258.882.882 0 0 0 .58 1.105z"/></g><g><path fill="#5c5c5c" d="M5.611 24.812a25.684 25.684 0 0 0-1.331 8.19c0 6.869 2.675 13.327 7.532 18.185 4.858 4.857 11.316 7.532 18.186 7.532a25.63 25.63 0 0 0 13.898-4.075 25.78 25.78 0 0 0 9.32-10.57.883.883 0 0 0-1.592-.76 24.015 24.015 0 0 1-8.683 9.846 23.853 23.853 0 0 1-12.06 3.779V52.94a.891.891 0 0 0-.883-.882.891.891 0 0 0-.883.882v3.996C16.608 56.48 6.518 46.39 6.063 33.884h3.995a.882.882 0 1 0 0-1.765H6.062c.083-2.307.493-4.571 1.222-6.745a.882.882 0 1 0-1.673-.562z"/></g><g><path fill="#5c5c5c" d="M25.997 33.001c0-.51.097-1 .273-1.45L19.494 19.87a2.471 2.471 0 0 1 .576-3.155 2.488 2.488 0 0 1 2.197-.472c.637.17 1.171.577 1.502 1.148l3.762 6.487v-2.416a2.473 2.473 0 0 1 2.47-2.47 2.473 2.473 0 0 1 2.471 2.47v8.392a3.998 3.998 0 0 1 1.535 3.148 4.01 4.01 0 0 1-4.005 4.005 4.01 4.01 0 0 1-4.005-4.005zm6.178.544a2.259 2.259 0 0 0-1.001-2.45c-.783-.483-1.815-.416-2.542.14a2.25 2.25 0 0 0-.694 2.637 2.263 2.263 0 0 0 2.064 1.37 2.263 2.263 0 0 0 2.173-1.697zm-2.879-4.486a4.038 4.038 0 0 1 1.412 0v-7.598a.706.706 0 0 0-1.412 0zm-8.275-10.075l6.37 10.982a4.75 4.75 0 0 1 .14-.115v-2.456l-5.289-9.12c-.308-.532-1.134-.421-1.292.173a.7.7 0 0 0 .071.536z"/></g></g></g></svg>