<svg xmlns="http://www.w3.org/2000/svg" width="73" height="71" viewBox="0 0 73 71"><g><g><g/><g transform="rotate(154.35 24 47)"><path fill="#ffc700" fill-opacity=".85" d="M.02 47.02c0-13.255 10.745-24 24-24s24 10.745 24 24-10.745 24-24 24-24-10.745-24-24z"/></g><g><g><g><g><path fill="#5c5c5c" d="M73 22.997V57a2.967 2.967 0 0 1-.587 1.765c-.006.01-.007.018-.014.028-.007.01-.02.013-.027.023A2.986 2.986 0 0 1 70 59.999H15.997a2.985 2.985 0 0 1-2.364-1.18c-.01-.01-.025-.02-.032-.027-.007-.008-.008-.02-.014-.028A2.966 2.966 0 0 1 13 56.999V22.994c0-.02.012-.039.012-.06a.948.948 0 0 1 .041-.2.987.987 0 0 1 .057-.172.894.894 0 0 1 .1-.153.935.935 0 0 1 .133-.155c.016-.014.023-.033.04-.047l9.614-7.47v-7.74a3 3 0 0 1 3-3h10.838l4.34-3.37a2.965 2.965 0 0 1 3.648 0l4.339 3.37h10.837a3 3 0 0 1 3 3v7.74l9.618 7.47c.017.014.024.033.04.047.05.047.094.099.133.155a.909.909 0 0 1 .1.153c.024.056.043.113.057.172a.945.945 0 0 1 .04.203c.002.021.013.04.013.06zm-32.902-19h5.8l-2.307-1.792a.959.959 0 0 0-1.193 0zm29.65 54.002L43.59 37.687a.96.96 0 0 0-1.193 0L16.25 57.999zM71 56.439zm0 0V24.52L54.583 37.268a1 1 0 1 1-1.226-1.58l16.678-12.95-7.036-5.468v7.727a1 1 0 0 1-2 0v-18a1 1 0 0 0-1-1H25.997a1 1 0 0 0-1 1v18a1 1 0 1 1-2 0V17.27l-7.035 5.467 16.649 12.928a1 1 0 0 1-1.226 1.58L14.997 24.52v31.92l26.178-20.331a2.967 2.967 0 0 1 3.647 0z"/></g><g><path fill="#5c5c5c" d="M55.001 24v-4c0-6.627-5.373-12-12-12C36.373 8 31 13.373 31 20c0 6.628 5.373 12.001 12 12.001a1 1 0 1 0 0-2c-5.522 0-10-4.477-10-10s4.478-10 10-10c5.524 0 10.001 4.477 10.001 10v4a2 2 0 1 1-4 0v-4a1 1 0 1 0-2 0 4 4 0 1 1-4-4 1 1 0 1 0 0-2 6 6 0 1 0 4.043 10.421A3.99 3.99 0 0 0 55 24.001z"/></g></g></g></g></g></g></svg>