<svg xmlns="http://www.w3.org/2000/svg" width="76" height="18" viewBox="0 0 76 18"><g><g><path fill="#3d3d3d" d="M9.144 3.049H3.203V7.16h5.73v2.428h-5.73v8.149H.63V.62h8.513z"/></g><g><path fill="#59c341" d="M15.728 4.589c1.222-1.241 2.72-1.861 4.494-1.861 1.781 0 3.276.62 4.483 1.861 1.215 1.233 1.823 2.762 1.823 4.586 0 1.8-.615 3.33-1.844 4.585-1.23 1.24-2.74 1.86-4.528 1.86-1.649 0-3.103-.609-4.361-1.827-1.267-1.218-1.9-2.773-1.9-4.663 0-1.802.611-3.315 1.833-4.541zM11.3 9.102c0 2.742.965 4.958 2.894 6.652 1.752 1.529 3.728 2.294 5.928 2.294 2.489 0 4.613-.86 6.372-2.582 1.753-1.715 2.628-3.803 2.628-6.264 0-2.446-.872-4.542-2.617-6.285C24.768 1.173 22.685.3 20.255.3c-2.458 0-4.564.865-6.315 2.594-1.76 1.73-2.64 3.8-2.64 6.208"/></g><g><path fill="#3d3d3d" d="M53.25 15.309c1.156 0 2.117-.122 2.882-.366a5.844 5.844 0 0 0 2.077-1.23c1.265-1.161 1.899-2.672 1.899-4.534 0-1.878-.625-3.4-1.877-4.568-1.126-1.042-2.787-1.562-4.98-1.562h-1.16v12.26zM49.52.62h3.577c1.716 0 3.07.17 4.064.51a7.605 7.605 0 0 1 2.904 1.695c1.759 1.61 2.64 3.729 2.64 6.353 0 2.63-.918 4.759-2.751 6.385-.92.812-1.884 1.378-2.893 1.696-.942.317-2.278.477-4.008.477h-3.533zm18.175 9.721L62.13.621h2.96l3.897 6.839L72.895.62h2.96l-5.588 9.722v7.394h-2.573zM46.576.621v17.116h-2.479l-9.994-12.61v12.61H31.53V.62h2.479l9.995 12.588V.621z"/></g></g></svg>