<svg xmlns="http://www.w3.org/2000/svg" width="50" height="16" viewBox="0 0 50 16"><g><g><path fill="#3c58bf" d="M18.33 15.186L20.87.9h3.968l-2.46 14.286z"/></g><g><path fill="#293688" d="M18.33 15.186L21.584.9h3.254l-2.46 14.286z"/></g><g><path fill="#3c58bf" d="M36.743 1.055C35.949.737 34.679.42 33.093.42c-3.97 0-6.826 1.984-6.826 4.841 0 2.143 1.984 3.254 3.571 3.969 1.587.714 2.064 1.19 2.064 1.825 0 .952-1.27 1.429-2.381 1.429-1.588 0-2.46-.239-3.81-.794l-.555-.238-.556 3.254c.952.397 2.698.793 4.524.793 4.206 0 6.984-1.984 6.984-5 0-1.666-1.032-2.936-3.413-3.968-1.428-.714-2.301-1.111-2.301-1.825 0-.635.714-1.27 2.301-1.27 1.35 0 2.302.238 3.016.555l.397.16z"/></g><g><path fill="#293688" d="M36.743 1.055C35.949.737 34.679.42 33.093.42c-3.97 0-6.112 1.984-6.112 4.841 0 2.143 1.27 3.254 2.857 3.969 1.587.714 2.064 1.19 2.064 1.825 0 .952-1.27 1.429-2.381 1.429-1.588 0-2.46-.239-3.81-.794l-.555-.238-.556 3.254c.952.397 2.698.793 4.524.793 4.206 0 6.984-1.984 6.984-5 0-1.666-1.032-2.936-3.413-3.968-1.428-.714-2.301-1.111-2.301-1.825 0-.635.714-1.27 2.301-1.27 1.35 0 2.302.238 3.016.555l.397.16z"/></g><g><path fill="#3c58bf" d="M43.576.9h3.095l3.333 14.286h-3.81l-.475-2.381h-5.08l-.793 2.38H35.56l5.952-13.253C41.91.979 42.623.9 43.576.9zm-1.826 9.603h3.334c-.159-.793-.953-4.365-.953-4.365l-.238-1.35a34.798 34.798 0 0 0-.555 1.43s-1.35 3.492-1.588 4.206z"/></g><g><path fill="#293688" d="M44.528.9h2.143l3.333 14.286h-3.81l-.475-2.381h-5.08l-.793 2.38H35.56l6.905-13.253C42.862.979 43.575.9 44.528.9zm-2.778 9.603h3.334c-.159-.793-.953-4.365-.953-4.365l-.238-1.35a34.798 34.798 0 0 0-.555 1.43s-1.27 3.412-1.588 4.206z"/></g><g><path fill="#3c58bf" d="M11.032 10.9l-.396-2.063c-.715-2.38-3.016-5-5.556-6.27l3.571 12.699h4.286L19.366.98H15.08z"/></g><g><path fill="#293688" d="M11.032 10.9l-.396-2.063c-.715-2.38-3.016-5-5.556-6.27l3.571 12.699h4.286L19.366.98h-3.492z"/></g><g><path fill="#ffbc00" d="M0 .9l.714.159c5.08 1.19 8.572 4.206 9.92 7.778L9.207 2.09C8.968 1.138 8.254.9 7.381.9H0z"/></g><g><path fill="#f7981d" d="M0 .9c5.08 1.19 9.286 4.286 10.635 7.857l-1.35-5.635c-.237-.952-1.031-1.508-1.904-1.508z"/></g><g><path fill="#ed7c00" d="M0 .9c5.08 1.19 9.286 4.286 10.635 7.857l-.952-3.095c-.239-.952-.556-1.905-1.667-2.302z"/></g><g><g><path fill="#051244" d="M15.001 10.417l-2.698-2.699-1.27 3.016-.317-1.984C10 6.369 7.7 3.75 5.16 2.48l3.571 12.698h4.286z"/></g><g><path fill="#051244" d="M22.378 15.182l-3.413-3.492-.635 3.492z"/></g><g><path fill="#051244" d="M31.505 10.26c.317.317.476.556.397.873 0 .952-1.27 1.429-2.381 1.429-1.588 0-2.46-.239-3.81-.794l-.555-.238-.556 3.254c.952.397 2.698.793 4.524.793 2.54 0 4.603-.714 5.794-1.984z"/></g><g><path fill="#051244" d="M36.11 15.187h3.73l.794-2.381h5.08l.475 2.38H50l-1.35-5.793-4.761-4.603.238 1.27s.794 3.571.952 4.365h-3.333c.317-.794 1.587-4.206 1.587-4.206s.318-.873.556-1.429"/></g></g></g></svg>