<svg xmlns="http://www.w3.org/2000/svg" width="40" height="24" viewBox="0 0 40 24"><g><g><path fill="#ffb600" d="M40 12c0 6.603-5.333 12-12 12-6.603 0-12-5.397-12-12S21.333 0 27.937 0C34.666 0 40 5.397 40 12z"/></g><g><path fill="#f7981d" d="M28 0c6.603 0 12 5.397 12 12s-5.333 12-12 12c-6.603 0-12-5.397-12-12"/></g><g><path fill="#ff8500" d="M28 0c6.603 0 12 5.397 12 12s-5.333 12-12 12"/></g><g><path fill="#ff5050" d="M11.905 0C5.347.063 0 5.397 0 12s5.347 12 12.032 12c3.12 0 5.92-1.206 8.085-3.111.445-.381.827-.825 1.21-1.27h-2.483c-.319-.38-.637-.825-.892-1.206h4.265c.255-.381.51-.826.7-1.27h-5.665a7.553 7.553 0 0 1-.51-1.27h6.621c.382-1.206.637-2.476.637-3.81 0-.888-.127-1.714-.255-2.54h-7.384c.063-.444.19-.825.318-1.269h6.62a7.56 7.56 0 0 0-.508-1.27h-5.603c.191-.444.446-.825.7-1.27h4.266a6.037 6.037 0 0 0-.955-1.27h-2.355c.382-.444.763-.825 1.21-1.206C17.951 1.27 15.087.127 11.967.127c0-.127 0-.127-.063-.127z"/></g><g><path fill="#e52836" d="M0 11.936C0 18.574 5.347 24 12.032 24c3.12 0 5.92-1.213 8.085-3.128.445-.383.827-.83 1.21-1.276h-2.483c-.319-.383-.637-.83-.892-1.213h4.265c.255-.383.51-.83.7-1.277h-5.665a7.617 7.617 0 0 1-.51-1.276h6.621c.382-1.213.637-2.49.637-3.83 0-.894-.127-1.723-.255-2.553h-7.384c.063-.447.19-.83.318-1.277h6.62a7.624 7.624 0 0 0-.508-1.276h-5.603c.191-.447.446-.83.7-1.277h4.266a6.066 6.066 0 0 0-.955-1.277h-2.355c.382-.446.763-.83 1.21-1.212C17.951 1.148 15.087 0 11.967 0h-.063"/></g><g><path fill="#cb2026" d="M12.126 24c3.095 0 5.874-1.213 8.021-3.128.442-.383.821-.83 1.2-1.276h-2.463A14.7 14.7 0 0 1 18 18.383h4.232a8.21 8.21 0 0 0 .694-1.277h-5.62a7.656 7.656 0 0 1-.506-1.276h6.568c.38-1.213.632-2.49.632-3.83 0-.894-.126-1.723-.253-2.553h-7.326c.063-.447.19-.83.316-1.277h6.568a7.66 7.66 0 0 0-.505-1.276h-5.558c.19-.447.442-.83.695-1.277h4.231a6.064 6.064 0 0 0-.947-1.277h-2.337c.38-.446.758-.83 1.2-1.212C18 1.148 15.158 0 12.064 0H12"/></g><g><g><path fill="#fff" d="M16.251 15.047l.19-1.08c-.063 0-.19.064-.317.064-.444 0-.508-.254-.444-.38l.38-2.223h.7l.19-1.206h-.635l.127-.762h-1.27s-.762 4.19-.762 4.698c0 .762.444 1.08 1.016 1.08.38 0 .698-.127.825-.19z"/></g><g><path fill="#fff" d="M18.986 10.158c1.397 0 1.841 1.016 1.841 1.841 0 .318-.19 1.143-.19 1.143h-2.604s-.254 1.016 1.143 1.016c.635 0 1.334-.317 1.334-.317l-.254 1.206s-.381.19-1.334.19c-1.016 0-2.222-.444-2.222-2.222 0-1.587.952-2.984 2.286-2.857zm-.89 1.905h1.398c0-.064.127-.89-.572-.89-.698 0-.825.826-.825.89z"/></g><g><path fill="#fff" d="M26.982 15.049l.254-1.397s-.635.317-1.08.317c-.888 0-1.27-.698-1.27-1.46 0-1.524.763-2.35 1.652-2.35.635 0 1.142.382 1.142.382l.191-1.334s-.762-.317-1.46-.317c-1.46 0-2.921 1.27-2.921 3.683 0 1.587.762 2.666 2.286 2.666.508 0 1.206-.19 1.206-.19z"/></g><g><path fill="#fff" d="M10.987 11.617l-.508 3.492H9.336l.064-.508c-.064 0-.445.572-1.334.572-.444 0-1.206-.254-1.206-1.397 0-1.46 1.206-1.905 2.286-1.905h.571s.064-.063.064-.317c0-.381-.381-.445-.826-.445-.825 0-1.397.254-1.397.254l.19-1.079s.636-.254 1.525-.254c.444 0 1.714.063 1.714 1.587zm-1.714 1.207c-.953 0-1.143.444-1.143.762 0 .19.127.507.508.507.762 0 .889-1.015.889-1.206 0 0-.064 0-.254-.063z"/></g><g><path fill="#fff" d="M12.19 15.176c.318 0 1.905.064 1.905-1.65 0-1.588-1.524-1.27-1.524-1.905 0-.318.254-.445.699-.445.19 0 .889.064.889.064l.19-1.143s-.444-.127-1.206-.127c-.953 0-1.905.38-1.905 1.65 0 1.461 1.587 1.334 1.587 1.906 0 .38-.444.444-.762.444-.571 0-1.143-.19-1.143-.19l-.19 1.142c.063.127.38.254 1.46.254z"/></g><g><path fill="#fff" d="M38.852 9.083L37.9 15.18h-1.27l.064-.445s-.445.508-1.207.508c-1.08 0-1.587-1.08-1.587-2.095 0-1.65 1.016-3.048 2.159-3.048.698 0 1.206.635 1.206.635l.254-1.714zm-2.603 2.223c-.571 0-1.016.635-1.016 1.65 0 .635.254 1.016.699 1.016.698 0 1.016-.888 1.016-1.587 0-.762-.254-1.08-.699-1.08z"/></g><g><path fill="#fff" d="M2.346 15.115l.762-4.571.127 4.571h.89l1.65-4.571-.698 4.571H6.41L7.426 9.02H5.33l-1.27 3.746-.063-3.746H2.156L1.14 15.115z"/></g><g><path fill="#fff" d="M22.027 15.112c.38-2.095.444-3.81 1.333-3.492.127-.825.318-1.143.445-1.46h-.254c-.572 0-1.016.762-1.016.762l.127-.699h-1.207l-.825 4.953h1.397z"/></g><g><path fill="#fff" d="M31.617 11.617l-.508 3.492h-1.143l.064-.508c-.064 0-.445.572-1.334.572-.444 0-1.206-.254-1.206-1.397 0-1.46 1.206-1.905 2.286-1.905h.571s.064-.063.064-.317c0-.381-.381-.445-.826-.445-.825 0-1.397.254-1.397.254l.19-1.079s.636-.254 1.525-.254c.444 0 1.778.063 1.714 1.587zm-1.65 1.207c-.953 0-1.144.444-1.144.762 0 .19.127.507.508.507.762 0 .89-1.015.89-1.206-.064 0-.064 0-.255-.063z"/></g><g><path fill="#fff" d="M32.697 15.112c.38-2.095.444-3.81 1.333-3.492.127-.825.318-1.143.445-1.46h-.254c-.572 0-1.016.762-1.016.762l.127-.699h-1.207l-.825 4.953h1.397z"/></g></g><g><g><path fill="#dce5e5" d="M14.29 14.158c0 .762.444 1.08 1.016 1.08.444 0 .825-.127.952-.19l.19-1.08c-.063 0-.19.063-.317.063-.444 0-.508-.254-.444-.38l.38-2.223h.7l.19-1.206h-.635l.127-.762"/></g><g><path fill="#dce5e5" d="M18.98 10.158c1.398 0 1.842 1.016 1.842 1.841 0 .318-.19 1.143-.19 1.143h-2.604s-.254 1.016 1.143 1.016c.635 0 1.334-.317 1.334-.317l-.254 1.206s-.381.19-1.334.19c-1.016 0-1.587-.444-1.587-2.222 0-1.587.317-2.984 1.65-2.857zm-.888 1.905h1.65c0-.064-.126-.89-.825-.89-.698 0-.825.826-.825.89z"/></g><g><path fill="#dce5e5" d="M26.987 15.049l.254-1.397s-.635.317-1.08.317c-.888 0-1.27-.698-1.27-1.46 0-1.524.763-2.35 1.652-2.35.635 0 1.143.382 1.143.382l.19-1.334s-.762-.317-1.46-.317c-1.46 0-2.286 1.27-2.286 3.683 0 1.587.127 2.666 1.65 2.666.509 0 1.207-.19 1.207-.19z"/></g><g><path fill="#dce5e5" d="M9.21 10.16c.507 0 1.777.063 1.777 1.524l-.508 3.492H9.336l.064-.508c-.064 0-.445.571-1.334.571-.444 0-1.206-.254-1.206-1.396 0-1.46 1.206-1.905 2.286-1.905h.571s.064-.064.064-.318c0-.38-.381-.444-.826-.444-.825 0-1.397.254-1.397.254zm.063 2.667c-.953 0-1.143.444-1.143.762 0 .19.127.508.508.508.762 0 1.524-1.016 1.524-1.207 0 0-.699 0-.89-.063z"/></g><g><path fill="#dce5e5" d="M10.79 15.05s.381.126 1.46.126c.318 0 1.905.064 1.905-1.65 0-1.588-1.524-1.27-1.524-1.905 0-.318.254-.445.699-.445.19 0 .889.064.889.064l.19-1.143s-.444-.127-1.206-.127c-.953 0-1.27.38-1.27 1.65 0 1.461.952 1.334.952 1.906 0 .38-.444.444-.762.444"/></g><g><path fill="#dce5e5" d="M38.862 9.08l-.952 6.095h-1.27l.063-.444s-.444.508-1.206.508c-1.08 0-.952-1.08-.952-2.096 0-1.65.38-3.047 1.523-3.047.699 0 1.207.635 1.207.635zm-2.603 2.222c-.572 0-1.016.635-1.016 1.651 0 .635.254 1.016.698 1.016.699 0 1.27-.889 1.27-1.587 0-.762-.508-1.08-.952-1.08z"/></g><g><path fill="#dce5e5" d="M2.346 15.115l.762-4.571.127 4.571h.89l1.65-4.571-.698 4.571H6.41L7.426 9.02H5.838l-1.777 3.746-.064-3.746H3.3L1.14 15.115z"/></g><g><path fill="#dce5e5" d="M20.7 15.112h1.333c.381-2.095.445-3.81 1.334-3.492.127-.825.317-1.143.444-1.46h-.254c-.571 0-1.016.762-1.016.762l.127-.699"/></g><g><path fill="#dce5e5" d="M29.84 10.16c.507 0 1.777.063 1.777 1.524l-.508 3.492h-1.143l.064-.508c-.064 0-.445.571-1.334.571-.444 0-1.206-.254-1.206-1.396 0-1.46 1.206-1.905 2.286-1.905h.571s.064-.064.064-.318c0-.38-.381-.444-.826-.444-.825 0-1.397.254-1.397.254zm.063 2.667c-.953 0-1.143.444-1.143.762 0 .19.127.508.508.508.762 0 1.524-1.016 1.524-1.207 0 0-.635 0-.89-.063z"/></g><g><path fill="#dce5e5" d="M31.37 15.112h1.333c.381-2.095.445-3.81 1.334-3.492.127-.825.317-1.143.444-1.46h-.254c-.571 0-1.016.762-1.016.762l.127-.699"/></g></g></g></svg>