<?xml version="1.0" standalone="no"?>
<!DOCTYPE svg PUBLIC "-//W3C//DTD SVG 20010904//EN"
 "http://www.w3.org/TR/2001/REC-SVG-20010904/DTD/svg10.dtd">
<svg version="1.0" xmlns="http://www.w3.org/2000/svg"
 width="590.000000pt" height="590.000000pt" viewBox="0 0 590.000000 590.000000"
 preserveAspectRatio="xMidYMid meet">
<metadata>
Created by potrace 1.11, written by Peter Selinger 2001-2013
</metadata>
<g transform="translate(0.000000,590.000000) scale(0.100000,-0.100000)"
fill="#000000" stroke="none">
<path d="M3545 5875 c-38 -7 -86 -16 -105 -19 -19 -4 -60 -11 -90 -16 -30 -6
-66 -12 -80 -15 -183 -31 -177 -29 -239 -94 -54 -57 -79 -106 -137 -268 -25
-71 -63 -173 -84 -228 -36 -96 -69 -189 -74 -210 -2 -5 -8 -23 -14 -38 -7 -16
-12 -31 -12 -33 0 -4 -20 -53 -50 -119 -11 -24 -60 -163 -65 -185 -2 -8 -4
-15 -5 -15 -1 0 -3 -7 -5 -15 -7 -34 -49 -147 -62 -167 -8 -12 -14 -23 -13
-25 1 -3 3 0 -39 -115 -16 -46 -27 -83 -24 -83 3 0 -1 -10 -9 -22 -8 -13 -18
-40 -22 -60 -4 -20 -13 -50 -21 -65 -8 -15 -15 -35 -15 -44 0 -8 -4 -19 -10
-25 -5 -5 -11 -18 -13 -29 -1 -11 -5 -24 -8 -30 -10 -17 -43 -120 -38 -121 2
0 -2 -8 -9 -16 -7 -9 -15 -24 -17 -34 -5 -24 -113 -324 -123 -344 -5 -8 -17
-42 -27 -75 -11 -33 -22 -62 -25 -65 -6 -6 -12 -30 -13 -47 0 -7 -4 -13 -9
-13 -4 0 -7 -3 -6 -7 2 -8 -21 -81 -31 -98 -3 -5 -6 -17 -8 -25 -1 -8 -6 -23
-11 -35 -6 -11 -27 -67 -47 -125 -20 -58 -41 -114 -45 -125 -37 -93 -120 -328
-120 -342 0 -7 -5 -13 -12 -13 -6 0 -9 -3 -5 -6 3 -3 -3 -29 -15 -58 -11 -28
-22 -58 -23 -66 -5 -19 -73 -205 -90 -245 -7 -16 -18 -48 -25 -70 -7 -22 -18
-53 -25 -70 -12 -27 -68 -183 -71 -195 0 -3 -3 -12 -7 -20 -3 -8 -17 -49 -32
-90 -15 -41 -38 -103 -51 -137 -13 -34 -24 -68 -24 -75 0 -8 -4 -18 -8 -23
-15 -17 -73 -205 -67 -215 4 -6 1 -10 -5 -10 -6 0 -9 -3 -7 -7 3 -5 7 -35 11
-68 8 -84 32 -158 64 -197 71 -87 125 -117 252 -143 9 -2 47 -6 85 -10 39 -3
84 -8 100 -10 17 -2 57 -7 90 -10 33 -4 71 -8 85 -10 52 -7 166 -18 193 -19
15 -1 27 -3 27 -6 0 -3 21 -6 48 -7 26 -1 61 -4 77 -7 17 -2 57 -7 90 -10 33
-3 78 -8 100 -11 49 -7 116 -14 174 -20 24 -2 62 -6 85 -9 23 -3 68 -8 101
-11 33 -4 71 -9 85 -11 14 -3 48 -7 75 -9 28 -2 68 -6 90 -9 22 -3 65 -8 95
-11 30 -3 71 -9 90 -11 19 -3 53 -6 75 -5 33 0 355 53 469 77 39 8 119 84 161
155 37 60 61 130 237 699 17 52 32 102 35 110 3 8 7 21 9 28 1 7 20 67 42 135
41 129 87 274 147 472 20 66 39 127 42 135 3 8 7 20 8 25 2 6 17 55 35 110 18
55 33 104 35 110 1 5 5 17 8 25 3 8 27 83 52 165 26 83 58 185 72 228 14 43
26 84 27 90 1 7 5 17 8 23 4 6 9 21 12 35 2 13 13 51 24 84 11 33 36 114 57
180 20 66 52 167 70 225 18 58 50 159 70 225 21 66 46 138 56 160 10 22 31 83
47 135 17 52 48 154 71 225 33 107 66 229 75 280 1 6 4 15 7 20 4 6 18 51 33
100 15 50 40 131 56 180 71 224 82 261 85 270 1 6 5 17 8 25 18 41 44 168 40
195 -22 160 -36 196 -94 250 -85 78 -145 93 -409 100 -215 6 -580 15 -772 19
-98 3 -182 7 -187 10 -5 4 -12 2 -16 -4 -4 -6 -11 -8 -16 -4 -22 13 -433 12
-504 -1z"/>
<path d="M2449 417 c6 -8 7 -18 3 -22 -4 -5 -1 -5 6 -1 10 6 10 11 1 22 -6 8
-14 14 -16 14 -3 0 0 -6 6 -13z"/>
<path d="M2276 407 c3 -10 9 -15 12 -12 3 3 0 11 -7 18 -10 9 -11 8 -5 -6z"/>
<path d="M2695 411 c-3 -5 -2 -12 3 -15 5 -3 9 1 9 9 0 17 -3 19 -12 6z"/>
<path d="M3255 411 c-3 -5 -2 -12 3 -15 5 -3 9 1 9 9 0 17 -3 19 -12 6z"/>
<path d="M3635 411 c-3 -5 -2 -12 3 -15 5 -3 9 1 9 9 0 17 -3 19 -12 6z"/>
<path d="M2590 399 c0 -5 5 -7 10 -4 6 3 10 8 10 11 0 2 -4 4 -10 4 -5 0 -10
-5 -10 -11z"/>
<path d="M3315 400 c3 -5 8 -10 11 -10 2 0 4 5 4 10 0 6 -5 10 -11 10 -5 0 -7
-4 -4 -10z"/>
<path d="M3390 399 c0 -5 5 -7 10 -4 6 3 10 8 10 11 0 2 -4 4 -10 4 -5 0 -10
-5 -10 -11z"/>
<path d="M2913 385 c0 -8 4 -12 9 -9 5 3 6 10 3 15 -9 13 -12 11 -12 -6z"/>
<path d="M2214 376 c1 -8 5 -18 8 -22 4 -3 5 1 4 10 -1 8 -5 18 -8 22 -4 3 -5
-1 -4 -10z"/>
<path d="M2370 379 c0 -5 5 -7 10 -4 6 3 10 8 10 11 0 2 -4 4 -10 4 -5 0 -10
-5 -10 -11z"/>
<path d="M2635 380 c-3 -5 -1 -10 4 -10 6 0 11 5 11 10 0 6 -2 10 -4 10 -3 0
-8 -4 -11 -10z"/>
<path d="M2730 379 c0 -5 5 -7 10 -4 6 3 10 8 10 11 0 2 -4 4 -10 4 -5 0 -10
-5 -10 -11z"/>
<path d="M2850 379 c0 -5 5 -7 10 -4 6 3 10 8 10 11 0 2 -4 4 -10 4 -5 0 -10
-5 -10 -11z"/>
<path d="M3075 380 c3 -5 8 -10 11 -10 2 0 4 5 4 10 0 6 -5 10 -11 10 -5 0 -7
-4 -4 -10z"/>
<path d="M3470 376 c7 -7 13 -7 20 0 6 6 3 10 -10 10 -13 0 -16 -4 -10 -10z"/>
<path d="M3519 373 c-13 -16 -12 -17 4 -4 16 13 21 21 13 21 -2 0 -10 -8 -17
-17z"/>
<path d="M3786 382 c-3 -5 1 -9 9 -9 8 0 12 4 9 9 -3 4 -7 8 -9 8 -2 0 -6 -4
-9 -8z"/>
<path d="M3853 365 c0 -8 4 -12 9 -9 5 3 6 10 3 15 -9 13 -12 11 -12 -6z"/>
<path d="M2115 359 c-3 -4 2 -6 10 -5 21 3 28 13 10 13 -9 0 -18 -4 -20 -8z"/>
<path d="M2250 360 c0 -5 5 -10 11 -10 5 0 7 5 4 10 -3 6 -8 10 -11 10 -2 0
-4 -4 -4 -10z"/>
<path d="M2775 360 c-3 -5 -1 -10 4 -10 6 0 11 5 11 10 0 6 -2 10 -4 10 -3 0
-8 -4 -11 -10z"/>
<path d="M2810 359 c0 -5 5 -7 10 -4 6 3 10 8 10 11 0 2 -4 4 -10 4 -5 0 -10
-5 -10 -11z"/>
<path d="M3210 360 c0 -5 5 -10 11 -10 5 0 7 5 4 10 -3 6 -8 10 -11 10 -2 0
-4 -4 -4 -10z"/>
<path d="M3255 360 c-3 -5 -1 -10 4 -10 6 0 11 5 11 10 0 6 -2 10 -4 10 -3 0
-8 -4 -11 -10z"/>
<path d="M3375 360 c-3 -5 -1 -10 4 -10 6 0 11 5 11 10 0 6 -2 10 -4 10 -3 0
-8 -4 -11 -10z"/>
<path d="M3573 355 c0 -8 4 -12 9 -9 5 3 6 10 3 15 -9 13 -12 11 -12 -6z"/>
<path d="M3615 360 c3 -5 8 -10 11 -10 2 0 4 5 4 10 0 6 -5 10 -11 10 -5 0 -7
-4 -4 -10z"/>
<path d="M3710 360 c0 -5 5 -10 11 -10 5 0 7 5 4 10 -3 6 -8 10 -11 10 -2 0
-4 -4 -4 -10z"/>
<path d="M2355 340 c3 -5 8 -10 11 -10 2 0 4 5 4 10 0 6 -5 10 -11 10 -5 0 -7
-4 -4 -10z"/>
<path d="M3026 338 c3 -4 9 -8 15 -8 5 0 9 4 9 8 0 5 -7 9 -15 9 -8 0 -12 -4
-9 -9z"/>
<path d="M3070 340 c0 -5 5 -10 11 -10 5 0 7 5 4 10 -3 6 -8 10 -11 10 -2 0
-4 -4 -4 -10z"/>
<path d="M3100 346 c0 -2 8 -10 18 -17 15 -13 16 -12 3 4 -13 16 -21 21 -21
13z"/>
<path d="M2059 328 c-5 -18 -6 -38 -1 -34 7 8 12 36 6 36 -2 0 -4 -1 -5 -2z"/>
<path d="M2775 320 c3 -5 8 -10 11 -10 2 0 4 5 4 10 0 6 -5 10 -11 10 -5 0 -7
-4 -4 -10z"/>
<path d="M3255 320 c-3 -5 -1 -10 4 -10 6 0 11 5 11 10 0 6 -2 10 -4 10 -3 0
-8 -4 -11 -10z"/>
<path d="M3295 320 c-3 -5 -1 -10 4 -10 6 0 11 5 11 10 0 6 -2 10 -4 10 -3 0
-8 -4 -11 -10z"/>
<path d="M3330 319 c0 -5 5 -7 10 -4 6 3 10 8 10 11 0 2 -4 4 -10 4 -5 0 -10
-5 -10 -11z"/>
<path d="M3575 320 c-3 -5 -1 -10 4 -10 6 0 11 5 11 10 0 6 -2 10 -4 10 -3 0
-8 -4 -11 -10z"/>
<path d="M3754 322 c4 -3 14 -7 22 -8 9 -1 13 0 10 4 -4 3 -14 7 -22 8 -9 1
-13 0 -10 -4z"/>
<path d="M3814 318 c-4 -7 -4 -10 1 -6 4 4 15 2 24 -5 14 -11 14 -10 2 6 -16
20 -18 21 -27 5z"/>
<path d="M3875 319 c-3 -4 2 -6 10 -5 21 3 28 13 10 13 -9 0 -18 -4 -20 -8z"/>
<path d="M3950 319 c0 -5 5 -7 10 -4 6 3 10 8 10 11 0 2 -4 4 -10 4 -5 0 -10
-5 -10 -11z"/>
<path d="M2156 307 c3 -10 9 -15 12 -12 3 3 0 11 -7 18 -10 9 -11 8 -5 -6z"/>
<path d="M2393 305 c0 -8 4 -12 9 -9 5 3 6 10 3 15 -9 13 -12 11 -12 -6z"/>
<path d="M2430 298 c0 -4 4 -8 9 -8 6 0 12 4 15 8 3 5 -1 9 -9 9 -8 0 -15 -4
-15 -9z"/>
<path d="M3097 295 c-4 -8 -3 -16 1 -19 4 -3 9 4 9 15 2 23 -3 25 -10 4z"/>
<path d="M3494 296 c1 -8 5 -18 8 -22 4 -3 5 1 4 10 -1 8 -5 18 -8 22 -4 3 -5
-1 -4 -10z"/>
<path d="M4015 300 c3 -5 8 -10 11 -10 2 0 4 5 4 10 0 6 -5 10 -11 10 -5 0 -7
-4 -4 -10z"/>
<path d="M3373 285 c0 -8 4 -12 9 -9 5 3 6 10 3 15 -9 13 -12 11 -12 -6z"/>
<path d="M2216 278 c3 -5 10 -6 15 -3 13 9 11 12 -6 12 -8 0 -12 -4 -9 -9z"/>
<path d="M2295 281 c-3 -5 -2 -12 3 -15 5 -3 9 1 9 9 0 17 -3 19 -12 6z"/>
<path d="M2650 279 c0 -5 5 -7 10 -4 6 3 10 8 10 11 0 2 -4 4 -10 4 -5 0 -10
-5 -10 -11z"/>
<path d="M2935 280 c3 -5 8 -10 11 -10 2 0 4 5 4 10 0 6 -5 10 -11 10 -5 0 -7
-4 -4 -10z"/>
<path d="M3056 282 c-3 -5 1 -9 9 -9 8 0 12 4 9 9 -3 4 -7 8 -9 8 -2 0 -6 -4
-9 -8z"/>
<path d="M3790 280 c0 -5 5 -10 11 -10 5 0 7 5 4 10 -3 6 -8 10 -11 10 -2 0
-4 -4 -4 -10z"/>
<path d="M1995 260 c3 -5 8 -10 11 -10 2 0 4 5 4 10 0 6 -5 10 -11 10 -5 0 -7
-4 -4 -10z"/>
<path d="M2416 262 c-3 -5 1 -9 9 -9 8 0 12 4 9 9 -3 4 -7 8 -9 8 -2 0 -6 -4
-9 -8z"/>
<path d="M2915 180 c-3 -5 -1 -10 4 -10 6 0 11 5 11 10 0 6 -2 10 -4 10 -3 0
-8 -4 -11 -10z"/>
</g>
</svg>
