<svg xmlns="http://www.w3.org/2000/svg" width="21" height="20" viewBox="0 0 21 20"><g><g><path fill="#59c341" d="M13.814 5.653L10.756 7.52 7.7 5.653V1.918L10.756.05l3.058 1.868z"/></g><g><path fill="#3d3d3d" d="M13.814 18.27l-3.058 1.868L7.7 18.269v-3.734l3.056-1.868 3.058 1.868zm7.055 0l-3.058 1.868-3.057-1.869v-3.734l3.057-1.868 3.058 1.868zm-14.11 0l-3.176 1.868L.41 18.269v-3.734l3.174-1.868 3.175 1.868zm3.528-6.306l-3.058 1.868-3.057-1.868V8.228L7.23 6.36l3.058 1.868zm7.054 0l-3.057 1.868-3.057-1.868V8.228l3.057-1.868 3.057 1.868z"/></g></g></svg>